<?xml version="1.0" encoding="UTF-8"?><svg id="Layer_1" xmlns="http://www.w3.org/2000/svg" viewBox="0 0 162.76 162.76"><defs><style>.cls-1{fill:#015051;}.cls-2{fill:#04f2d5;}.cls-3{fill:#04837b;}.cls-4{fill:#01a7a3;}</style></defs><path class="cls-1" d="M52.83,0h57.09c29.16,0,52.83,23.67,52.83,52.83v57.09c0,29.16-23.67,52.84-52.84,52.84H52.83C23.67,162.76,0,139.08,0,109.92V52.83C0,23.67,23.67,0,52.83,0Z" transform="translate(162.76) rotate(90)"/><rect class="cls-3" x="5" y="5.35" width="152.76" height="152.76" rx="47.48" ry="47.48" transform="translate(163.11 .35) rotate(90)"/><rect class="cls-1" x="9.5" y="11.51" width="143.76" height="143.76" rx="48.55" ry="48.55"/><rect class="cls-2" x="15.96" y="16.9" width="132.23" height="132.23" rx="43.35" ry="43.35" transform="translate(165.09 .94) rotate(90)"/><path class="cls-1" d="M29.1,78.59c0-3.92,3.41-6.95,7.3-6.53,20.17,2.17,35.52,13.16,35.52,26.4s-15.35,24.23-35.52,26.4c-3.89,.42-7.3-2.62-7.3-6.53v-39.72Z"/><path class="cls-4" d="M35.68,120.88c-1.42,0-2.58-1.15-2.58-2.57v-39.73c0-1.42,1.16-2.57,2.58-2.57,.1,0,.19,0,.29,.02,18.21,1.96,31.95,11.6,31.95,22.42s-13.73,20.46-31.95,22.42c-.1,.01-.2,.02-.29,.02Z"/><path class="cls-1" d="M139.33,104.01c-3.2-21.06-16.48-35.76-32.28-35.76s-29.08,14.71-32.28,35.76c-.83,5.47,.76,11.02,4.38,15.23,3.63,4.23,8.91,6.65,14.48,6.65h26.85c5.57,0,10.84-2.42,14.47-6.65,3.61-4.21,5.21-9.75,4.38-15.23Zm-18.85,9.74h-26.85c-4.22,0-7.49-3.74-6.85-7.91,2.22-14.61,10.46-25.45,20.28-25.45s18.06,10.84,20.28,25.45c.63,4.17-2.64,7.91-6.85,7.91Z"/><path class="cls-4" d="M93.63,121.88c-4.4,0-8.57-1.92-11.44-5.25-2.85-3.32-4.11-7.7-3.46-12.02,2.9-19.06,14.55-32.37,28.33-32.37s25.43,13.31,28.33,32.37c.66,4.32-.61,8.7-3.46,12.02-2.87,3.34-7.04,5.25-11.44,5.25h-26.85Zm13.42-45.5c-11.68,0-21.65,11.86-24.23,28.85-.48,3.12,.44,6.29,2.5,8.7,2.08,2.42,5.11,3.81,8.3,3.81h26.85c3.19,0,6.22-1.39,8.3-3.81,2.07-2.41,2.98-5.58,2.5-8.7-2.58-16.99-12.55-28.85-24.23-28.85Z"/><path class="cls-1" d="M106.34,63.83c7.4,0,14.24,3.22,19.75,8.81,1.01-1.62,1.51-3.67,1.23-5.83-2.22-16.91-10.46-29.47-20.28-29.47s-18.06,12.55-20.28,29.47c-.23,1.77,.07,3.48,.74,4.93,5.35-5.03,11.84-7.91,18.83-7.91Z"/><path class="cls-4" d="M123,64.92c-5.09-3.35-10.74-5.09-16.65-5.09-5.28,0-10.38,1.41-15.06,4.12,2.49-13.1,8.99-22.6,15.77-22.6s13.59,9.98,15.95,23.58Z"/><path class="cls-1" d="M36.4,64.88c8.64,.93,16.4,3.48,22.44,7.13,3.6-3.47,5.71-7.6,5.71-12.05,0-10.43-11.52-19.18-27.04-21.54-4.43-.67-8.41,2.8-8.41,7.28v25.71c0-3.92,3.41-6.95,7.3-6.53Z"/><path class="cls-4" d="M57.99,66.97c-6.15-3.15-13.39-5.23-21.16-6.06-.38-.04-.77-.06-1.15-.06-.89,0-1.76,.11-2.58,.32v-15.46c0-1.86,1.48-3.36,3.3-3.36,.17,0,.33,.01,.5,.04,13.7,2.08,23.64,9.48,23.64,17.59,0,2.77-1.16,5.15-2.56,7Z"/></svg>